<?xml version="1.0" encoding="UTF-8"?>
<svg xmlns="http://www.w3.org/2000/svg" xmlns:xlink="http://www.w3.org/1999/xlink" width="612" height="792" viewBox="0 0 612 792">
<rect x="-61.2" y="-79.2" width="734.4" height="950.4" fill="rgb(100%, 100%, 100%)" fill-opacity="1"/>
<path fill-rule="nonzero" fill="rgb(81.959534%, 55.288696%, 16.079712%)" fill-opacity="1" stroke-width="4" stroke-linecap="butt" stroke-linejoin="miter" stroke="rgb(81.959534%, 55.288696%, 16.079712%)" stroke-opacity="1" stroke-miterlimit="4" d="M -188.340984 28.924653 C -188.340984 28.924653 -234.499073 133.501862 -234.999993 133.998185 C -162.49999 275.500947 -6.498147 270.500947 -6.498147 270.500947 C -6.498147 270.500947 -188.340984 28.924653 -188.340984 28.924653 Z M -188.340984 28.924653 C -188.340984 28.924653 -234.499073 133.501862 -234.999993 133.998185 C -162.49999 275.500947 -6.498147 270.500947 -6.498147 270.500947 C -6.498147 270.500947 -188.340984 28.924653 -188.340984 28.924653 Z M 119.218769 148.648921 C 119.218769 148.648921 232.858478 136.328149 233.547817 136.521164 C 319.83918 2.977961 237.509214 -129.618551 237.509214 -129.618551 C 237.509214 -129.618551 119.218769 148.648921 119.218769 148.648921 Z M 69.12226 -177.56892 C 69.12226 -177.56892 1.64064 -269.829953 1.452221 -270.519291 C -157.339144 -278.47885 -231.011022 -140.877742 -231.011022 -140.877742 C -231.011022 -140.877742 69.12226 -177.56892 69.12226 -177.56892 Z M -188.340984 28.924653 C -188.340984 28.924653 -234.499073 133.501862 -234.999993 133.998185 C -162.49999 275.500947 -6.498147 270.500947 -6.498147 270.500947 C -6.498147 270.500947 -188.340984 28.924653 -188.340984 28.924653 Z M -188.340984 28.924653 " transform="matrix(0.85, 0, 0, 0.85, 305.999987, 395.999984)"/>
<path fill-rule="nonzero" fill="rgb(20.779419%, 19.60907%, 19.60907%)" fill-opacity="1" stroke-width="4" stroke-linecap="butt" stroke-linejoin="miter" stroke="rgb(20.779419%, 19.60907%, 19.60907%)" stroke-opacity="1" stroke-miterlimit="4" d="M -186.681913 23.45668 C -186.681913 23.45668 -234.49843 133.499231 -234.999215 134.002534 C -161.891283 265.551012 -15.917588 269.789725 -15.917588 269.789725 C -15.917588 269.789725 -186.681913 23.45668 -186.681913 23.45668 Z M -186.681913 23.45668 C -186.681913 23.45668 -234.49843 133.499231 -234.999215 134.002534 C -161.891283 265.551012 -15.917588 269.789725 -15.917588 269.789725 C -15.917588 269.789725 -186.681913 23.45668 -186.681913 23.45668 Z M 113.659372 149.941656 C 113.659372 149.941656 232.861095 136.330261 233.551384 136.51985 C 310.919324 7.427803 241.599639 -121.10996 241.599639 -121.10996 C 241.599639 -121.10996 113.659372 149.941656 113.659372 149.941656 Z M 73.028921 -173.399917 C 73.028921 -173.399917 1.637408 -269.8295 1.451844 -270.520026 C -149.031907 -272.98119 -225.692222 -148.680568 -225.692222 -148.680568 C -225.692222 -148.680568 73.028921 -173.399917 73.028921 -173.399917 Z M -186.681913 23.45668 C -186.681913 23.45668 -234.49843 133.499231 -234.999215 134.002534 C -161.891283 265.551012 -15.917588 269.789725 -15.917588 269.789725 C -15.917588 269.789725 -186.681913 23.45668 -186.681913 23.45668 Z M -186.681913 23.45668 " transform="matrix(0.437782, 0.728592, -0.728592, 0.437782, 305.999987, 395.999984)"/>
</svg>
